<?xml version="1.0" encoding="UTF-8"?>
<svg xmlns="http://www.w3.org/2000/svg" xmlns:xlink="http://www.w3.org/1999/xlink" width="512px" height="512px" viewBox="0 0 512 512" version="1.1">
<defs>
<clipPath id="clip1">
  <path d="M 406 113 L 511.75 113 L 511.75 202 L 406 202 Z M 406 113 "/>
</clipPath>
</defs>
<g id="surface1">
<path style=" stroke:none;fill-rule:nonzero;fill:rgb(20%,22.352941%,25.490198%);fill-opacity:1;" d="M 466.109375 197.414062 C 487.175781 197.414062 504.253906 180.335938 504.253906 159.269531 C 504.253906 138.203125 487.175781 121.121094 466.109375 121.121094 C 445.042969 121.121094 400.515625 132.019531 400.515625 159.269531 C 400.515625 186.515625 445.042969 197.414062 466.109375 197.414062 "/>
<path style=" stroke:none;fill-rule:nonzero;fill:rgb(100%,94.509804%,81.176472%);fill-opacity:1;" d="M 97.441406 166.09375 C 97.441406 190.933594 77.304688 211.066406 52.46875 211.066406 C 27.628906 211.066406 7.496094 190.933594 7.496094 166.09375 C 7.496094 141.257812 27.628906 121.121094 52.46875 121.121094 C 77.304688 121.121094 97.441406 141.257812 97.441406 166.09375 "/>
<path style=" stroke:none;fill-rule:nonzero;fill:rgb(28.627452%,33.333334%,37.64706%);fill-opacity:1;" d="M 60.375 435.589844 C 48.824219 424.035156 48.824219 405.304688 60.378906 393.753906 C 66.984375 387.148438 100.53125 338.585938 100.53125 267.210938 C 100.53125 250.871094 113.777344 237.625 130.113281 237.625 C 146.453125 237.625 159.699219 250.871094 159.699219 267.210938 C 159.699219 348.003906 124.441406 413.371094 102.214844 435.59375 C 90.664062 447.144531 71.929688 447.148438 60.375 435.589844 "/>
<path style=" stroke:none;fill-rule:nonzero;fill:rgb(28.627452%,33.333334%,37.64706%);fill-opacity:1;" d="M 284.875 451.757812 C 268.535156 451.757812 255.292969 438.511719 255.292969 422.171875 C 255.292969 412.832031 244.671875 354.769531 194.203125 304.300781 C 182.652344 292.746094 182.652344 274.015625 194.203125 262.460938 C 205.757812 250.910156 224.488281 250.910156 236.042969 262.460938 C 293.167969 319.589844 314.460938 390.742188 314.460938 422.171875 C 314.460938 438.511719 301.214844 451.757812 284.875 451.757812 "/>
<path style=" stroke:none;fill-rule:nonzero;fill:rgb(28.627452%,33.333334%,37.64706%);fill-opacity:1;" d="M 406.113281 388.832031 C 399.511719 382.226562 350.945312 348.679688 279.570312 348.679688 C 263.234375 348.679688 249.988281 335.433594 249.988281 319.09375 C 249.988281 302.753906 263.234375 289.511719 279.570312 289.511719 C 360.363281 289.511719 425.730469 324.769531 447.953125 346.996094 C 459.507812 358.550781 459.503906 377.28125 447.949219 388.835938 C 436.402344 400.382812 417.667969 400.390625 406.113281 388.832031 "/>
<path style=" stroke:none;fill-rule:nonzero;fill:rgb(20%,22.352941%,25.490198%);fill-opacity:1;" d="M 279.570312 289.511719 C 263.234375 289.511719 249.988281 302.753906 249.988281 319.09375 C 249.988281 335.433594 263.234375 348.679688 279.570312 348.679688 C 332.507812 348.679688 372.878906 367.128906 392.90625 379.355469 C 408.125 366.679688 419.351562 349.234375 424.1875 328.988281 C 392.703125 309.585938 340.535156 289.511719 279.570312 289.511719 "/>
<path style=" stroke:none;fill-rule:nonzero;fill:rgb(20%,22.352941%,25.490198%);fill-opacity:1;" d="M 281.300781 386.007812 C 290.6875 392.128906 300.953125 396.457031 311.753906 398.882812 C 304.460938 362.75 281.714844 308.132812 236.042969 262.460938 C 224.488281 250.910156 205.757812 250.910156 194.203125 262.460938 C 182.652344 274.015625 182.652344 292.746094 194.203125 304.300781 C 227.964844 338.058594 243.886719 375.210938 250.734375 398.910156 C 261.582031 396.488281 271.882812 392.152344 281.300781 386.007812 "/>
<path style=" stroke:none;fill-rule:nonzero;fill:rgb(20%,22.352941%,25.490198%);fill-opacity:1;" d="M 126.363281 401.164062 C 143.636719 369.210938 159.699219 321.734375 159.699219 267.207031 C 159.699219 250.871094 146.457031 237.625 130.117188 237.625 C 113.777344 237.625 100.53125 250.871094 100.53125 267.207031 C 100.53125 320.738281 81.660156 361.4375 69.441406 381.230469 C 85.265625 393.589844 105.070312 400.921875 126.363281 401.164062 "/>
<path style=" stroke:none;fill-rule:nonzero;fill:rgb(100%,94.509804%,81.176472%);fill-opacity:1;" d="M 397.664062 178.171875 C 391.730469 176.058594 387.945312 170.109375 388.847656 163.875 C 394.34375 125.753906 364.808594 89.777344 324.484375 89.777344 C 315.929688 89.777344 307.765625 91.4375 300.285156 94.445312 C 294.457031 96.789062 287.8125 94.585938 284.363281 89.335938 C 272.75 71.664062 252.746094 59.992188 230.015625 59.992188 C 207.289062 59.992188 187.285156 71.664062 175.667969 89.335938 C 172.21875 94.585938 165.574219 96.789062 159.746094 94.445312 C 152.269531 91.4375 144.105469 89.777344 135.550781 89.777344 C 95.125 89.777344 65.691406 125.820312 71.191406 163.894531 C 72.089844 170.113281 68.3125 176.054688 62.390625 178.164062 C 34.214844 188.195312 14.039062 215.089844 14.039062 246.710938 C 14.039062 274.015625 29.082031 297.789062 51.328125 310.234375 C 54.875 312.21875 57.320312 315.667969 58.046875 319.667969 C 64.03125 352.570312 92.816406 377.519531 127.445312 377.519531 C 143.683594 377.519531 158.632812 372.027344 170.554688 362.804688 C 175.382812 359.066406 182.078125 359.066406 186.910156 362.804688 C 198.832031 372.027344 213.777344 377.519531 230.015625 377.519531 C 246.253906 377.519531 261.203125 372.027344 273.121094 362.804688 C 277.953125 359.066406 284.648438 359.066406 289.480469 362.804688 C 301.398438 372.027344 316.347656 377.519531 332.585938 377.519531 C 367.214844 377.519531 396 352.570312 401.984375 319.667969 C 402.710938 315.667969 405.15625 312.21875 408.703125 310.234375 C 430.949219 297.789062 445.992188 274.015625 445.992188 246.710938 C 445.992188 215.097656 425.828125 188.210938 397.664062 178.171875 "/>
<path style=" stroke:none;fill-rule:nonzero;fill:rgb(28.627452%,33.333334%,37.64706%);fill-opacity:1;" d="M 484.667969 210.160156 C 484.667969 253.683594 435.59375 288.964844 375.058594 288.964844 C 314.523438 288.964844 265.453125 253.683594 265.453125 210.160156 C 265.453125 166.636719 314.523438 131.355469 375.058594 131.355469 C 435.59375 131.355469 484.667969 166.636719 484.667969 210.160156 "/>
<path style=" stroke:none;fill-rule:nonzero;fill:rgb(20%,22.352941%,25.490198%);fill-opacity:1;" d="M 276.757812 235.601562 C 261.863281 250.5 237.710938 250.5 222.8125 235.601562 C 207.917969 220.707031 207.917969 196.554688 222.8125 181.65625 C 237.710938 166.761719 276.902344 142.984375 296.167969 162.25 C 315.433594 181.515625 291.652344 220.707031 276.757812 235.601562 "/>
<path style=" stroke:none;fill-rule:nonzero;fill:rgb(100%,63.529414%,67.843139%);fill-opacity:1;" d="M 363.273438 204.902344 C 363.273438 215.414062 352.574219 223.9375 339.371094 223.9375 C 326.167969 223.9375 315.46875 215.414062 315.46875 204.902344 C 315.46875 194.386719 326.167969 185.867188 339.371094 185.867188 C 352.574219 185.867188 363.273438 194.386719 363.273438 204.902344 "/>
<path style=" stroke:none;fill-rule:nonzero;fill:rgb(100%,63.529414%,67.843139%);fill-opacity:1;" d="M 404.578125 204.902344 C 404.578125 215.414062 415.28125 223.9375 428.480469 223.9375 C 441.683594 223.9375 452.382812 215.414062 452.382812 204.902344 C 452.382812 194.386719 441.683594 185.867188 428.480469 185.867188 C 415.28125 185.867188 404.578125 194.386719 404.578125 204.902344 "/>
<path style="fill:none;stroke-width:15;stroke-linecap:round;stroke-linejoin:round;stroke:rgb(100%,100%,100%);stroke-opacity:1;stroke-miterlimit:10;" d="M -0.00129691 0.000618882 L -0.00129691 -9.777591 " transform="matrix(0.999512,0,0,-0.999512,353.302078,176.805306)"/>
<path style="fill:none;stroke-width:15;stroke-linecap:round;stroke-linejoin:round;stroke:rgb(100%,100%,100%);stroke-opacity:1;stroke-miterlimit:10;" d="M 0.000324175 0.000618882 L 0.000324175 -9.777591 " transform="matrix(0.999512,0,0,-0.999512,414.550457,176.805306)"/>
<path style="fill:none;stroke-width:15;stroke-linecap:round;stroke-linejoin:round;stroke:rgb(100%,100%,100%);stroke-opacity:1;stroke-miterlimit:10;" d="M 0.000846375 -0.000302597 C 3.26025 -3.740409 8.059467 -6.108753 13.413643 -6.108753 C 18.767819 -6.108753 23.563128 -3.740409 26.82644 -0.000302597 " transform="matrix(0.999512,0,0,-0.999512,375.624154,244.620791)"/>
<path style=" stroke:none;fill-rule:nonzero;fill:rgb(98.823529%,89.019608%,62.7451%);fill-opacity:1;" d="M 167.53125 365.003906 C 136.714844 355.621094 120.667969 313.03125 134.753906 290.726562 C 136.890625 287.34375 136.039062 282.832031 132.636719 280.730469 C 98.167969 259.445312 107.785156 216.015625 123.953125 196.558594 C 126.554688 193.425781 125.9375 188.804688 122.699219 186.339844 C 89.441406 161.03125 99.164062 108.871094 131.761719 89.882812 C 93.304688 92.050781 65.867188 127.019531 71.191406 163.894531 C 72.085938 170.097656 68.375 176.039062 62.464844 178.136719 C 34.25 188.148438 14.039062 215.0625 14.039062 246.710938 C 14.039062 274.015625 29.082031 297.789062 51.328125 310.234375 C 54.875 312.21875 57.320312 315.667969 58.046875 319.667969 C 64.03125 352.570312 92.816406 377.519531 127.445312 377.519531 C 142.34375 377.519531 156.144531 372.886719 167.53125 365.003906 "/>
<path style="fill:none;stroke-width:15;stroke-linecap:round;stroke-linejoin:round;stroke:rgb(0%,0%,0%);stroke-opacity:1;stroke-miterlimit:10;" d="M -0.00062055 0.00123336 C -14.902425 -14.90448 -39.066564 -14.90448 -53.972277 0.00123336 C -68.874082 14.903038 -68.874082 39.067177 -53.972277 53.97289 C -39.066564 68.874694 0.143981 92.66365 19.419014 73.388616 C 38.694048 54.113583 14.901184 14.903038 -0.00062055 0.00123336 Z M -0.00062055 0.00123336 " transform="matrix(0.999512,0,0,-0.999512,276.758433,235.602795)"/>
<path style="fill:none;stroke-width:15;stroke-linecap:round;stroke-linejoin:round;stroke:rgb(0%,0%,0%);stroke-opacity:1;stroke-miterlimit:10;" d="M 0.000462598 0.00154215 C 15.984827 -29.321364 55.6878 -50.081497 102.132345 -50.081497 C 162.697063 -50.081497 211.795246 -14.783018 211.795246 28.761674 C 211.795246 72.306366 162.697063 107.604845 102.132345 107.604845 C 68.842658 107.604845 39.019508 96.939483 18.908129 80.099232 " transform="matrix(0.999512,0,0,-0.999512,272.9761,238.907791)"/>
<g clip-path="url(#clip1)" clip-rule="nonzero">
<path style="fill:none;stroke-width:15;stroke-linecap:round;stroke-linejoin:round;stroke:rgb(0%,0%,0%);stroke-opacity:1;stroke-miterlimit:10;" d="M -0.00180992 -0.000879401 C 12.977181 6.091938 21.965944 19.270246 21.965944 34.55505 C 21.965944 55.635652 4.879479 72.722117 -16.197215 72.722117 C -29.907032 72.722117 -53.547477 68.102675 -68.398476 57.374782 " transform="matrix(0.999512,0,0,-0.999512,482.298684,193.807715)"/>
</g>
<path style="fill:none;stroke-width:15;stroke-linecap:round;stroke-linejoin:round;stroke:rgb(0%,0%,0%);stroke-opacity:1;stroke-miterlimit:10;" d="M 0.00110211 0.000888094 C -14.37701 -14.072387 -22.083896 -34.582398 -19.031625 -55.721623 C -18.132749 -61.94341 -21.911937 -67.887717 -27.836704 -69.998122 C -56.026245 -80.034271 -76.211879 -106.941936 -76.211879 -138.578472 C -76.211879 -165.896493 -61.161564 -189.68154 -38.904607 -202.13293 C -35.352091 -204.118274 -32.909493 -207.569177 -32.182576 -211.571131 C -26.195278 -244.489542 2.603935 -269.450945 37.249752 -269.450945 C 53.495963 -269.450945 68.452482 -263.956075 80.380179 -254.728915 C 85.210662 -250.988808 91.909244 -250.988808 96.743635 -254.728915 C 108.671332 -263.956075 123.623943 -269.450945 139.870154 -269.450945 C 156.116365 -269.450945 171.072884 -263.956075 182.996673 -254.728915 C 187.831064 -250.988808 194.529646 -250.988808 199.364037 -254.728915 C 211.287825 -263.956075 226.244345 -269.450945 242.490556 -269.450945 C 277.136373 -269.450945 305.935586 -244.489542 311.922883 -211.571131 C 312.6498 -207.569177 315.096307 -204.118274 318.644914 -202.13293 C 333.320046 -193.925799 344.856927 -180.786573 351.020092 -164.958535 " transform="matrix(0.999512,0,0,-0.999512,90.213742,108.200106)"/>
<path style="fill:none;stroke-width:15;stroke-linecap:round;stroke-linejoin:round;stroke:rgb(0%,0%,0%);stroke-opacity:1;stroke-miterlimit:10;" d="M 0.0015622 -0.00176643 C -9.182608 23.978688 -32.268095 41.936673 -60.758564 41.936673 C -69.317429 41.936673 -77.485478 40.275706 -84.9696 37.266424 C -90.800571 34.92153 -97.448347 37.125731 -100.89925 42.378294 C -112.518203 60.058799 -132.531878 71.736374 -155.273447 71.736374 C -178.011107 71.736374 -198.024782 60.058799 -209.647643 42.378294 C -213.098546 37.125731 -219.746322 34.92153 -225.577293 37.266424 C -233.057507 40.275706 -241.225556 41.936673 -249.784421 41.936673 C -254.872843 41.936673 -259.785397 41.366082 -264.475186 40.295246 " transform="matrix(0.999512,0,0,-0.999512,385.213282,131.693547)"/>
<path style="fill:none;stroke-width:15;stroke-linecap:round;stroke-linejoin:round;stroke:rgb(0%,0%,0%);stroke-opacity:1;stroke-miterlimit:10;" d="M -0.00173495 0.00104522 C -6.92699 4.354733 -15.118488 6.883311 -23.904027 6.883311 C -48.752093 6.883311 -68.898645 -13.263242 -68.898645 -38.111308 C -68.898645 -53.943254 -60.718871 -67.852387 -48.357369 -75.871926 " transform="matrix(0.999512,0,0,-0.999512,76.361109,128.001045)"/>
<path style="fill:none;stroke-width:15;stroke-linecap:round;stroke-linejoin:round;stroke:rgb(0%,0%,0%);stroke-opacity:1;stroke-miterlimit:10;" d="M -0.000607445 -0.00186777 C -8.563381 -18.972065 -17.321562 -30.915394 -20.362108 -33.959849 C -31.922439 -45.516271 -31.922439 -64.259795 -20.366017 -75.816217 C -8.805686 -87.380455 9.937837 -87.376547 21.494259 -75.820125 C 32.179162 -65.135222 45.877254 -44.476701 57.226544 -16.928098 " transform="matrix(0.999512,0,0,-0.999512,80.731076,359.810633)"/>
<path style="fill:none;stroke-width:15;stroke-linecap:round;stroke-linejoin:round;stroke:rgb(0%,0%,0%);stroke-opacity:1;stroke-miterlimit:10;" d="M 0.000382593 0.00176856 C 9.731695 -23.118892 12.576834 -40.998713 12.576834 -45.829195 C 12.576834 -62.177019 25.825488 -75.429581 42.173311 -75.429581 C 58.521134 -75.429581 71.769788 -62.177019 71.769788 -45.829195 C 71.769788 -33.784254 68.643262 -15.908341 61.573405 4.773629 " transform="matrix(0.999512,0,0,-0.999512,242.722274,376.365049)"/>
<path style="fill:none;stroke-width:15;stroke-linecap:round;stroke-linejoin:round;stroke:rgb(0%,0%,0%);stroke-opacity:1;stroke-miterlimit:10;" d="M -0.00177059 0.000336916 C 3.527296 1.442447 6.833597 3.59975 9.694368 6.460521 C 21.254698 18.020852 21.258607 36.760467 9.698277 48.320797 C 0.850208 57.172774 -14.844953 68.08435 -35.624627 78.022795 " transform="matrix(0.999512,0,0,-0.999512,438.259582,395.293306)"/>
<path style="fill:none;stroke-width:15;stroke-linecap:round;stroke-linejoin:round;stroke:rgb(0%,0%,0%);stroke-opacity:1;stroke-miterlimit:10;" d="M 0.00163373 -0.00151154 C 18.694351 -8.110939 31.122293 -16.658079 35.671388 -20.570145 " transform="matrix(0.999512,0,0,-0.999512,369.299148,367.20552)"/>
</g>
</svg>
